<?xml version="1.0" encoding="utf-8" standalone="no"?>
<!DOCTYPE svg PUBLIC "-//W3C//DTD SVG 1.1//EN"
  "http://www.w3.org/Graphics/SVG/1.1/DTD/svg11.dtd">
<svg xmlns:xlink="http://www.w3.org/1999/xlink" width="460.8pt" height="345.6pt" viewBox="0 0 460.8 345.6" xmlns="http://www.w3.org/2000/svg" version="1.1">
 <metadata>
  <rdf:RDF xmlns:dc="http://purl.org/dc/elements/1.1/" xmlns:cc="http://creativecommons.org/ns#" xmlns:rdf="http://www.w3.org/1999/02/22-rdf-syntax-ns#">
   <cc:Work>
    <dc:type rdf:resource="http://purl.org/dc/dcmitype/StillImage"/>
    <dc:date>2024-06-03T16:22:03.215758</dc:date>
    <dc:format>image/svg+xml</dc:format>
    <dc:creator>
     <cc:Agent>
      <dc:title>Matplotlib v3.9.0, https://matplotlib.org/</dc:title>
     </cc:Agent>
    </dc:creator>
   </cc:Work>
  </rdf:RDF>
 </metadata>
 <defs>
  <style type="text/css">*{stroke-linejoin: round; stroke-linecap: butt}</style>
 </defs>
 <g id="figure_1">
  <g id="patch_1">
   <path d="M 0 345.6 
L 460.8 345.6 
L 460.8 0 
L 0 0 
z
" style="fill: #ffffff"/>
  </g>
  <g id="axes_1">
   <g id="patch_2">
    <path d="M 57.6 307.584 
L 414.72 307.584 
L 414.72 41.472 
L 57.6 41.472 
z
" style="fill: #ffffff"/>
   </g>
   <g id="PathCollection_1">
    <defs>
     <path id="C0_0_b803509beb" d="M 0 5 
C 1.326016 5 2.597899 4.473168 3.535534 3.535534 
C 4.473168 2.597899 5 1.326016 5 -0 
C 5 -1.326016 4.473168 -2.597899 3.535534 -3.535534 
C 2.597899 -4.473168 1.326016 -5 0 -5 
C -1.326016 -5 -2.597899 -4.473168 -3.535534 -3.535534 
C -4.473168 -2.597899 -5 -1.326016 -5 0 
C -5 1.326016 -4.473168 2.597899 -3.535534 3.535534 
C -2.597899 4.473168 -1.326016 5 0 5 
z
"/>
    </defs>
    <g clip-path="url(#p1b32f00a69)">
     <use xlink:href="#C0_0_b803509beb" x="398.487273" y="103.451774" style="fill: #fde725; fill-opacity: 0.5; stroke: #fde725; stroke-opacity: 0.5"/>
    </g>
    <g clip-path="url(#p1b32f00a69)">
     <use xlink:href="#C0_0_b803509beb" x="371.510247" y="121.27517" style="fill: #fde725; fill-opacity: 0.5; stroke: #fde725; stroke-opacity: 0.5"/>
    </g>
    <g clip-path="url(#p1b32f00a69)">
     <use xlink:href="#C0_0_b803509beb" x="364.068309" y="95.30083" style="fill: #fde725; fill-opacity: 0.5; stroke: #fde725; stroke-opacity: 0.5"/>
    </g>
    <g clip-path="url(#p1b32f00a69)">
     <use xlink:href="#C0_0_b803509beb" x="361.742704" y="169.528755" style="fill: #35b779; fill-opacity: 0.5; stroke: #35b779; stroke-opacity: 0.5"/>
    </g>
    <g clip-path="url(#p1b32f00a69)">
     <use xlink:href="#C0_0_b803509beb" x="332.207512" y="53.568" style="fill: #fde725; fill-opacity: 0.5; stroke: #fde725; stroke-opacity: 0.5"/>
    </g>
    <g clip-path="url(#p1b32f00a69)">
     <use xlink:href="#C0_0_b803509beb" x="323.835332" y="181.374792" style="fill: #35b779; fill-opacity: 0.5; stroke: #35b779; stroke-opacity: 0.5"/>
    </g>
    <g clip-path="url(#p1b32f00a69)">
     <use xlink:href="#C0_0_b803509beb" x="319.881803" y="158.334792" style="fill: #35b779; fill-opacity: 0.5; stroke: #35b779; stroke-opacity: 0.5"/>
    </g>
    <g clip-path="url(#p1b32f00a69)">
     <use xlink:href="#C0_0_b803509beb" x="309.416577" y="161.59517" style="fill: #fde725; fill-opacity: 0.5; stroke: #fde725; stroke-opacity: 0.5"/>
    </g>
    <g clip-path="url(#p1b32f00a69)">
     <use xlink:href="#C0_0_b803509beb" x="304.532805" y="191.373283" style="fill: #440154; fill-opacity: 0.5; stroke: #440154; stroke-opacity: 0.5"/>
    </g>
    <g clip-path="url(#p1b32f00a69)">
     <use xlink:href="#C0_0_b803509beb" x="302.2072" y="197.241962" style="fill: #31688e; fill-opacity: 0.5; stroke: #31688e; stroke-opacity: 0.5"/>
    </g>
    <g clip-path="url(#p1b32f00a69)">
     <use xlink:href="#C0_0_b803509beb" x="288.486127" y="181.374792" style="fill: #440154; fill-opacity: 0.5; stroke: #440154; stroke-opacity: 0.5"/>
    </g>
    <g clip-path="url(#p1b32f00a69)">
     <use xlink:href="#C0_0_b803509beb" x="283.602355" y="106.929509" style="fill: #35b779; fill-opacity: 0.5; stroke: #35b779; stroke-opacity: 0.5"/>
    </g>
    <g clip-path="url(#p1b32f00a69)">
     <use xlink:href="#C0_0_b803509beb" x="275.462735" y="186.374038" style="fill: #31688e; fill-opacity: 0.5; stroke: #31688e; stroke-opacity: 0.5"/>
    </g>
    <g clip-path="url(#p1b32f00a69)">
     <use xlink:href="#C0_0_b803509beb" x="271.044084" y="152.792151" style="fill: #31688e; fill-opacity: 0.5; stroke: #31688e; stroke-opacity: 0.5"/>
    </g>
    <g clip-path="url(#p1b32f00a69)">
     <use xlink:href="#C0_0_b803509beb" x="269.648721" y="203.219321" style="fill: #440154; fill-opacity: 0.5; stroke: #440154; stroke-opacity: 0.5"/>
    </g>
    <g clip-path="url(#p1b32f00a69)">
     <use xlink:href="#C0_0_b803509beb" x="266.857994" y="194.851019" style="fill: #440154; fill-opacity: 0.5; stroke: #440154; stroke-opacity: 0.5"/>
    </g>
    <g clip-path="url(#p1b32f00a69)">
     <use xlink:href="#C0_0_b803509beb" x="260.113738" y="196.589887" style="fill: #440154; fill-opacity: 0.5; stroke: #440154; stroke-opacity: 0.5"/>
    </g>
    <g clip-path="url(#p1b32f00a69)">
     <use xlink:href="#C0_0_b803509beb" x="254.997406" y="192.568755" style="fill: #440154; fill-opacity: 0.5; stroke: #440154; stroke-opacity: 0.5"/>
    </g>
    <g clip-path="url(#p1b32f00a69)">
     <use xlink:href="#C0_0_b803509beb" x="251.276437" y="177.897057" style="fill: #440154; fill-opacity: 0.5; stroke: #440154; stroke-opacity: 0.5"/>
    </g>
    <g clip-path="url(#p1b32f00a69)">
     <use xlink:href="#C0_0_b803509beb" x="235.927439" y="205.936302" style="fill: #440154; fill-opacity: 0.5; stroke: #440154; stroke-opacity: 0.5"/>
    </g>
    <g clip-path="url(#p1b32f00a69)">
     <use xlink:href="#C0_0_b803509beb" x="222.438927" y="194.851019" style="fill: #35b779; fill-opacity: 0.5; stroke: #35b779; stroke-opacity: 0.5"/>
    </g>
    <g clip-path="url(#p1b32f00a69)">
     <use xlink:href="#C0_0_b803509beb" x="221.741245" y="232.888755" style="fill: #440154; fill-opacity: 0.5; stroke: #440154; stroke-opacity: 0.5"/>
    </g>
    <g clip-path="url(#p1b32f00a69)">
     <use xlink:href="#C0_0_b803509beb" x="221.741245" y="222.781585" style="fill: #440154; fill-opacity: 0.5; stroke: #440154; stroke-opacity: 0.5"/>
    </g>
    <g clip-path="url(#p1b32f00a69)">
     <use xlink:href="#C0_0_b803509beb" x="220.811003" y="227.889509" style="fill: #440154; fill-opacity: 0.5; stroke: #440154; stroke-opacity: 0.5"/>
    </g>
    <g clip-path="url(#p1b32f00a69)">
     <use xlink:href="#C0_0_b803509beb" x="219.6482" y="202.023849" style="fill: #440154; fill-opacity: 0.5; stroke: #440154; stroke-opacity: 0.5"/>
    </g>
    <g clip-path="url(#p1b32f00a69)">
     <use xlink:href="#C0_0_b803509beb" x="217.787716" y="92.692528" style="fill: #31688e; fill-opacity: 0.5; stroke: #31688e; stroke-opacity: 0.5"/>
    </g>
    <g clip-path="url(#p1b32f00a69)">
     <use xlink:href="#C0_0_b803509beb" x="208.485293" y="226.476679" style="fill: #440154; fill-opacity: 0.5; stroke: #440154; stroke-opacity: 0.5"/>
    </g>
    <g clip-path="url(#p1b32f00a69)">
     <use xlink:href="#C0_0_b803509beb" x="201.275916" y="174.854038" style="fill: #440154; fill-opacity: 0.5; stroke: #440154; stroke-opacity: 0.5"/>
    </g>
    <g clip-path="url(#p1b32f00a69)">
     <use xlink:href="#C0_0_b803509beb" x="198.252628" y="224.411774" style="fill: #440154; fill-opacity: 0.5; stroke: #440154; stroke-opacity: 0.5"/>
    </g>
    <g clip-path="url(#p1b32f00a69)">
     <use xlink:href="#C0_0_b803509beb" x="193.136296" y="222.672906" style="fill: #440154; fill-opacity: 0.5; stroke: #440154; stroke-opacity: 0.5"/>
    </g>
    <g clip-path="url(#p1b32f00a69)">
     <use xlink:href="#C0_0_b803509beb" x="192.903735" y="242.017811" style="fill: #440154; fill-opacity: 0.5; stroke: #440154; stroke-opacity: 0.5"/>
    </g>
    <g clip-path="url(#p1b32f00a69)">
     <use xlink:href="#C0_0_b803509beb" x="191.973493" y="262.884226" style="fill: #440154; fill-opacity: 0.5; stroke: #440154; stroke-opacity: 0.5"/>
    </g>
    <g clip-path="url(#p1b32f00a69)">
     <use xlink:href="#C0_0_b803509beb" x="187.554842" y="229.084981" style="fill: #440154; fill-opacity: 0.5; stroke: #440154; stroke-opacity: 0.5"/>
    </g>
    <g clip-path="url(#p1b32f00a69)">
     <use xlink:href="#C0_0_b803509beb" x="186.39204" y="234.192906" style="fill: #440154; fill-opacity: 0.5; stroke: #440154; stroke-opacity: 0.5"/>
    </g>
    <g clip-path="url(#p1b32f00a69)">
     <use xlink:href="#C0_0_b803509beb" x="184.298995" y="225.498566" style="fill: #440154; fill-opacity: 0.5; stroke: #440154; stroke-opacity: 0.5"/>
    </g>
    <g clip-path="url(#p1b32f00a69)">
     <use xlink:href="#C0_0_b803509beb" x="177.787299" y="229.30234" style="fill: #440154; fill-opacity: 0.5; stroke: #440154; stroke-opacity: 0.5"/>
    </g>
    <g clip-path="url(#p1b32f00a69)">
     <use xlink:href="#C0_0_b803509beb" x="174.06633" y="239.952906" style="fill: #440154; fill-opacity: 0.5; stroke: #440154; stroke-opacity: 0.5"/>
    </g>
    <g clip-path="url(#p1b32f00a69)">
     <use xlink:href="#C0_0_b803509beb" x="170.345361" y="238.757434" style="fill: #440154; fill-opacity: 0.5; stroke: #440154; stroke-opacity: 0.5"/>
    </g>
    <g clip-path="url(#p1b32f00a69)">
     <use xlink:href="#C0_0_b803509beb" x="170.345361" y="187.895547" style="fill: #31688e; fill-opacity: 0.5; stroke: #31688e; stroke-opacity: 0.5"/>
    </g>
    <g clip-path="url(#p1b32f00a69)">
     <use xlink:href="#C0_0_b803509beb" x="167.089513" y="262.123472" style="fill: #440154; fill-opacity: 0.5; stroke: #440154; stroke-opacity: 0.5"/>
    </g>
    <g clip-path="url(#p1b32f00a69)">
     <use xlink:href="#C0_0_b803509beb" x="165.92671" y="191.808" style="fill: #440154; fill-opacity: 0.5; stroke: #440154; stroke-opacity: 0.5"/>
    </g>
    <g clip-path="url(#p1b32f00a69)">
     <use xlink:href="#C0_0_b803509beb" x="165.69415" y="230.063094" style="fill: #440154; fill-opacity: 0.5; stroke: #440154; stroke-opacity: 0.5"/>
    </g>
    <g clip-path="url(#p1b32f00a69)">
     <use xlink:href="#C0_0_b803509beb" x="165.229028" y="189.851774" style="fill: #440154; fill-opacity: 0.5; stroke: #440154; stroke-opacity: 0.5"/>
    </g>
    <g clip-path="url(#p1b32f00a69)">
     <use xlink:href="#C0_0_b803509beb" x="162.903423" y="186.917434" style="fill: #440154; fill-opacity: 0.5; stroke: #440154; stroke-opacity: 0.5"/>
    </g>
    <g clip-path="url(#p1b32f00a69)">
     <use xlink:href="#C0_0_b803509beb" x="162.670862" y="263.101585" style="fill: #440154; fill-opacity: 0.5; stroke: #440154; stroke-opacity: 0.5"/>
    </g>
    <g clip-path="url(#p1b32f00a69)">
     <use xlink:href="#C0_0_b803509beb" x="162.670862" y="223.977057" style="fill: #440154; fill-opacity: 0.5; stroke: #440154; stroke-opacity: 0.5"/>
    </g>
    <g clip-path="url(#p1b32f00a69)">
     <use xlink:href="#C0_0_b803509beb" x="162.438302" y="224.846491" style="fill: #440154; fill-opacity: 0.5; stroke: #440154; stroke-opacity: 0.5"/>
    </g>
    <g clip-path="url(#p1b32f00a69)">
     <use xlink:href="#C0_0_b803509beb" x="161.973181" y="219.738566" style="fill: #440154; fill-opacity: 0.5; stroke: #440154; stroke-opacity: 0.5"/>
    </g>
    <g clip-path="url(#p1b32f00a69)">
     <use xlink:href="#C0_0_b803509beb" x="161.042938" y="226.150642" style="fill: #440154; fill-opacity: 0.5; stroke: #440154; stroke-opacity: 0.5"/>
    </g>
    <g clip-path="url(#p1b32f00a69)">
     <use xlink:href="#C0_0_b803509beb" x="157.321969" y="251.255547" style="fill: #440154; fill-opacity: 0.5; stroke: #440154; stroke-opacity: 0.5"/>
    </g>
    <g clip-path="url(#p1b32f00a69)">
     <use xlink:href="#C0_0_b803509beb" x="157.089409" y="235.171019" style="fill: #440154; fill-opacity: 0.5; stroke: #440154; stroke-opacity: 0.5"/>
    </g>
    <g clip-path="url(#p1b32f00a69)">
     <use xlink:href="#C0_0_b803509beb" x="156.856848" y="206.805736" style="fill: #440154; fill-opacity: 0.5; stroke: #440154; stroke-opacity: 0.5"/>
    </g>
    <g clip-path="url(#p1b32f00a69)">
     <use xlink:href="#C0_0_b803509beb" x="154.996364" y="247.886491" style="fill: #440154; fill-opacity: 0.5; stroke: #440154; stroke-opacity: 0.5"/>
    </g>
    <g clip-path="url(#p1b32f00a69)">
     <use xlink:href="#C0_0_b803509beb" x="154.763803" y="241.365736" style="fill: #440154; fill-opacity: 0.5; stroke: #440154; stroke-opacity: 0.5"/>
    </g>
    <g clip-path="url(#p1b32f00a69)">
     <use xlink:href="#C0_0_b803509beb" x="152.670758" y="219.19517" style="fill: #440154; fill-opacity: 0.5; stroke: #440154; stroke-opacity: 0.5"/>
    </g>
    <g clip-path="url(#p1b32f00a69)">
     <use xlink:href="#C0_0_b803509beb" x="149.647471" y="221.260075" style="fill: #440154; fill-opacity: 0.5; stroke: #440154; stroke-opacity: 0.5"/>
    </g>
    <g clip-path="url(#p1b32f00a69)">
     <use xlink:href="#C0_0_b803509beb" x="144.763699" y="263.427623" style="fill: #440154; fill-opacity: 0.5; stroke: #440154; stroke-opacity: 0.5"/>
    </g>
    <g clip-path="url(#p1b32f00a69)">
     <use xlink:href="#C0_0_b803509beb" x="144.531138" y="237.670642" style="fill: #440154; fill-opacity: 0.5; stroke: #440154; stroke-opacity: 0.5"/>
    </g>
    <g clip-path="url(#p1b32f00a69)">
     <use xlink:href="#C0_0_b803509beb" x="142.903214" y="174.745358" style="fill: #440154; fill-opacity: 0.5; stroke: #440154; stroke-opacity: 0.5"/>
    </g>
    <g clip-path="url(#p1b32f00a69)">
     <use xlink:href="#C0_0_b803509beb" x="142.670654" y="216.043472" style="fill: #440154; fill-opacity: 0.5; stroke: #440154; stroke-opacity: 0.5"/>
    </g>
    <g clip-path="url(#p1b32f00a69)">
     <use xlink:href="#C0_0_b803509beb" x="140.112488" y="251.798943" style="fill: #440154; fill-opacity: 0.5; stroke: #440154; stroke-opacity: 0.5"/>
    </g>
    <g clip-path="url(#p1b32f00a69)">
     <use xlink:href="#C0_0_b803509beb" x="138.019443" y="241.691774" style="fill: #440154; fill-opacity: 0.5; stroke: #440154; stroke-opacity: 0.5"/>
    </g>
    <g clip-path="url(#p1b32f00a69)">
     <use xlink:href="#C0_0_b803509beb" x="137.0892" y="232.345358" style="fill: #440154; fill-opacity: 0.5; stroke: #440154; stroke-opacity: 0.5"/>
    </g>
    <g clip-path="url(#p1b32f00a69)">
     <use xlink:href="#C0_0_b803509beb" x="127.554217" y="254.515925" style="fill: #440154; fill-opacity: 0.5; stroke: #440154; stroke-opacity: 0.5"/>
    </g>
    <g clip-path="url(#p1b32f00a69)">
     <use xlink:href="#C0_0_b803509beb" x="127.321657" y="233.54083" style="fill: #440154; fill-opacity: 0.5; stroke: #440154; stroke-opacity: 0.5"/>
    </g>
    <g clip-path="url(#p1b32f00a69)">
     <use xlink:href="#C0_0_b803509beb" x="124.53093" y="208.653283" style="fill: #440154; fill-opacity: 0.5; stroke: #440154; stroke-opacity: 0.5"/>
    </g>
    <g clip-path="url(#p1b32f00a69)">
     <use xlink:href="#C0_0_b803509beb" x="124.298369" y="221.260075" style="fill: #440154; fill-opacity: 0.5; stroke: #440154; stroke-opacity: 0.5"/>
    </g>
    <g clip-path="url(#p1b32f00a69)">
     <use xlink:href="#C0_0_b803509beb" x="123.600688" y="254.189887" style="fill: #440154; fill-opacity: 0.5; stroke: #440154; stroke-opacity: 0.5"/>
    </g>
    <g clip-path="url(#p1b32f00a69)">
     <use xlink:href="#C0_0_b803509beb" x="122.903006" y="272.882717" style="fill: #440154; fill-opacity: 0.5; stroke: #440154; stroke-opacity: 0.5"/>
    </g>
    <g clip-path="url(#p1b32f00a69)">
     <use xlink:href="#C0_0_b803509beb" x="119.879719" y="248.864604" style="fill: #440154; fill-opacity: 0.5; stroke: #440154; stroke-opacity: 0.5"/>
    </g>
    <g clip-path="url(#p1b32f00a69)">
     <use xlink:href="#C0_0_b803509beb" x="119.414598" y="266.688" style="fill: #440154; fill-opacity: 0.5; stroke: #440154; stroke-opacity: 0.5"/>
    </g>
    <g clip-path="url(#p1b32f00a69)">
     <use xlink:href="#C0_0_b803509beb" x="116.15875" y="257.450264" style="fill: #440154; fill-opacity: 0.5; stroke: #440154; stroke-opacity: 0.5"/>
    </g>
    <g clip-path="url(#p1b32f00a69)">
     <use xlink:href="#C0_0_b803509beb" x="113.600583" y="239.735547" style="fill: #440154; fill-opacity: 0.5; stroke: #440154; stroke-opacity: 0.5"/>
    </g>
    <g clip-path="url(#p1b32f00a69)">
     <use xlink:href="#C0_0_b803509beb" x="112.20522" y="285.815547" style="fill: #440154; fill-opacity: 0.5; stroke: #440154; stroke-opacity: 0.5"/>
    </g>
    <g clip-path="url(#p1b32f00a69)">
     <use xlink:href="#C0_0_b803509beb" x="110.577296" y="284.511396" style="fill: #440154; fill-opacity: 0.5; stroke: #440154; stroke-opacity: 0.5"/>
    </g>
    <g clip-path="url(#p1b32f00a69)">
     <use xlink:href="#C0_0_b803509beb" x="110.112175" y="234.518943" style="fill: #440154; fill-opacity: 0.5; stroke: #440154; stroke-opacity: 0.5"/>
    </g>
    <g clip-path="url(#p1b32f00a69)">
     <use xlink:href="#C0_0_b803509beb" x="108.251691" y="251.255547" style="fill: #440154; fill-opacity: 0.5; stroke: #440154; stroke-opacity: 0.5"/>
    </g>
    <g clip-path="url(#p1b32f00a69)">
     <use xlink:href="#C0_0_b803509beb" x="105.460964" y="264.949132" style="fill: #440154; fill-opacity: 0.5; stroke: #440154; stroke-opacity: 0.5"/>
    </g>
    <g clip-path="url(#p1b32f00a69)">
     <use xlink:href="#C0_0_b803509beb" x="104.763282" y="234.301585" style="fill: #440154; fill-opacity: 0.5; stroke: #440154; stroke-opacity: 0.5"/>
    </g>
    <g clip-path="url(#p1b32f00a69)">
     <use xlink:href="#C0_0_b803509beb" x="103.600479" y="232.128" style="fill: #440154; fill-opacity: 0.5; stroke: #440154; stroke-opacity: 0.5"/>
    </g>
    <g clip-path="url(#p1b32f00a69)">
     <use xlink:href="#C0_0_b803509beb" x="103.600479" y="261.580075" style="fill: #440154; fill-opacity: 0.5; stroke: #440154; stroke-opacity: 0.5"/>
    </g>
    <g clip-path="url(#p1b32f00a69)">
     <use xlink:href="#C0_0_b803509beb" x="100.809753" y="257.776302" style="fill: #440154; fill-opacity: 0.5; stroke: #440154; stroke-opacity: 0.5"/>
    </g>
    <g clip-path="url(#p1b32f00a69)">
     <use xlink:href="#C0_0_b803509beb" x="99.414389" y="263.210264" style="fill: #440154; fill-opacity: 0.5; stroke: #440154; stroke-opacity: 0.5"/>
    </g>
    <g clip-path="url(#p1b32f00a69)">
     <use xlink:href="#C0_0_b803509beb" x="96.158541" y="279.62083" style="fill: #440154; fill-opacity: 0.5; stroke: #440154; stroke-opacity: 0.5"/>
    </g>
    <g clip-path="url(#p1b32f00a69)">
     <use xlink:href="#C0_0_b803509beb" x="94.065496" y="178.223094" style="fill: #440154; fill-opacity: 0.5; stroke: #440154; stroke-opacity: 0.5"/>
    </g>
    <g clip-path="url(#p1b32f00a69)">
     <use xlink:href="#C0_0_b803509beb" x="92.902693" y="285.163472" style="fill: #440154; fill-opacity: 0.5; stroke: #440154; stroke-opacity: 0.5"/>
    </g>
    <g clip-path="url(#p1b32f00a69)">
     <use xlink:href="#C0_0_b803509beb" x="91.274769" y="277.447245" style="fill: #440154; fill-opacity: 0.5; stroke: #440154; stroke-opacity: 0.5"/>
    </g>
    <g clip-path="url(#p1b32f00a69)">
     <use xlink:href="#C0_0_b803509beb" x="90.111967" y="240.931019" style="fill: #440154; fill-opacity: 0.5; stroke: #440154; stroke-opacity: 0.5"/>
    </g>
    <g clip-path="url(#p1b32f00a69)">
     <use xlink:href="#C0_0_b803509beb" x="88.949164" y="289.184604" style="fill: #440154; fill-opacity: 0.5; stroke: #440154; stroke-opacity: 0.5"/>
    </g>
    <g clip-path="url(#p1b32f00a69)">
     <use xlink:href="#C0_0_b803509beb" x="86.390998" y="279.186113" style="fill: #440154; fill-opacity: 0.5; stroke: #440154; stroke-opacity: 0.5"/>
    </g>
    <g clip-path="url(#p1b32f00a69)">
     <use xlink:href="#C0_0_b803509beb" x="86.158437" y="243.104604" style="fill: #440154; fill-opacity: 0.5; stroke: #440154; stroke-opacity: 0.5"/>
    </g>
    <g clip-path="url(#p1b32f00a69)">
     <use xlink:href="#C0_0_b803509beb" x="83.13515" y="253.972528" style="fill: #440154; fill-opacity: 0.5; stroke: #440154; stroke-opacity: 0.5"/>
    </g>
    <g clip-path="url(#p1b32f00a69)">
     <use xlink:href="#C0_0_b803509beb" x="82.902589" y="239.409509" style="fill: #440154; fill-opacity: 0.5; stroke: #440154; stroke-opacity: 0.5"/>
    </g>
    <g clip-path="url(#p1b32f00a69)">
     <use xlink:href="#C0_0_b803509beb" x="82.902589" y="270.709132" style="fill: #440154; fill-opacity: 0.5; stroke: #440154; stroke-opacity: 0.5"/>
    </g>
    <g clip-path="url(#p1b32f00a69)">
     <use xlink:href="#C0_0_b803509beb" x="80.344423" y="218.217057" style="fill: #440154; fill-opacity: 0.5; stroke: #440154; stroke-opacity: 0.5"/>
    </g>
    <g clip-path="url(#p1b32f00a69)">
     <use xlink:href="#C0_0_b803509beb" x="79.879302" y="282.55517" style="fill: #440154; fill-opacity: 0.5; stroke: #440154; stroke-opacity: 0.5"/>
    </g>
    <g clip-path="url(#p1b32f00a69)">
     <use xlink:href="#C0_0_b803509beb" x="79.18162" y="282.989887" style="fill: #440154; fill-opacity: 0.5; stroke: #440154; stroke-opacity: 0.5"/>
    </g>
    <g clip-path="url(#p1b32f00a69)">
     <use xlink:href="#C0_0_b803509beb" x="77.553696" y="246.256302" style="fill: #440154; fill-opacity: 0.5; stroke: #440154; stroke-opacity: 0.5"/>
    </g>
    <g clip-path="url(#p1b32f00a69)">
     <use xlink:href="#C0_0_b803509beb" x="76.623454" y="237.779321" style="fill: #440154; fill-opacity: 0.5; stroke: #440154; stroke-opacity: 0.5"/>
    </g>
    <g clip-path="url(#p1b32f00a69)">
     <use xlink:href="#C0_0_b803509beb" x="73.832727" y="295.488" style="fill: #440154; fill-opacity: 0.5; stroke: #440154; stroke-opacity: 0.5"/>
    </g>
   </g>
   <g id="matplotlib.axis_1">
    <g id="xtick_1">
     <g id="line2d_1">
      <defs>
       <path id="m89d8e02bc3" d="M 0 0 
L 0 3.5 
" style="stroke: #000000; stroke-width: 0.8"/>
      </defs>
      <g>
       <use xlink:href="#m89d8e02bc3" x="69.646637" y="307.584" style="stroke: #000000; stroke-width: 0.8"/>
      </g>
     </g>
     <g id="text_1">
      <!-- 0.2 -->
      <g transform="translate(61.695075 322.182437) scale(0.1 -0.1)">
       <defs>
        <path id="DejaVuSans-30" d="M 2034 4250 
Q 1547 4250 1301 3770 
Q 1056 3291 1056 2328 
Q 1056 1369 1301 889 
Q 1547 409 2034 409 
Q 2525 409 2770 889 
Q 3016 1369 3016 2328 
Q 3016 3291 2770 3770 
Q 2525 4250 2034 4250 
z
M 2034 4750 
Q 2819 4750 3233 4129 
Q 3647 3509 3647 2328 
Q 3647 1150 3233 529 
Q 2819 -91 2034 -91 
Q 1250 -91 836 529 
Q 422 1150 422 2328 
Q 422 3509 836 4129 
Q 1250 4750 2034 4750 
z
" transform="scale(0.015625)"/>
        <path id="DejaVuSans-2e" d="M 684 794 
L 1344 794 
L 1344 0 
L 684 0 
L 684 794 
z
" transform="scale(0.015625)"/>
        <path id="DejaVuSans-32" d="M 1228 531 
L 3431 531 
L 3431 0 
L 469 0 
L 469 531 
Q 828 903 1448 1529 
Q 2069 2156 2228 2338 
Q 2531 2678 2651 2914 
Q 2772 3150 2772 3378 
Q 2772 3750 2511 3984 
Q 2250 4219 1831 4219 
Q 1534 4219 1204 4116 
Q 875 4013 500 3803 
L 500 4441 
Q 881 4594 1212 4672 
Q 1544 4750 1819 4750 
Q 2544 4750 2975 4387 
Q 3406 4025 3406 3419 
Q 3406 3131 3298 2873 
Q 3191 2616 2906 2266 
Q 2828 2175 2409 1742 
Q 1991 1309 1228 531 
z
" transform="scale(0.015625)"/>
       </defs>
       <use xlink:href="#DejaVuSans-30"/>
       <use xlink:href="#DejaVuSans-2e" x="63.623047"/>
       <use xlink:href="#DejaVuSans-32" x="95.410156"/>
      </g>
     </g>
    </g>
    <g id="xtick_2">
     <g id="line2d_2">
      <g>
       <use xlink:href="#m89d8e02bc3" x="124.182089" y="307.584" style="stroke: #000000; stroke-width: 0.8"/>
      </g>
     </g>
     <g id="text_2">
      <!-- 0.3 -->
      <g transform="translate(116.230527 322.182437) scale(0.1 -0.1)">
       <defs>
        <path id="DejaVuSans-33" d="M 2597 2516 
Q 3050 2419 3304 2112 
Q 3559 1806 3559 1356 
Q 3559 666 3084 287 
Q 2609 -91 1734 -91 
Q 1441 -91 1130 -33 
Q 819 25 488 141 
L 488 750 
Q 750 597 1062 519 
Q 1375 441 1716 441 
Q 2309 441 2620 675 
Q 2931 909 2931 1356 
Q 2931 1769 2642 2001 
Q 2353 2234 1838 2234 
L 1294 2234 
L 1294 2753 
L 1863 2753 
Q 2328 2753 2575 2939 
Q 2822 3125 2822 3475 
Q 2822 3834 2567 4026 
Q 2313 4219 1838 4219 
Q 1578 4219 1281 4162 
Q 984 4106 628 3988 
L 628 4550 
Q 988 4650 1302 4700 
Q 1616 4750 1894 4750 
Q 2613 4750 3031 4423 
Q 3450 4097 3450 3541 
Q 3450 3153 3228 2886 
Q 3006 2619 2597 2516 
z
" transform="scale(0.015625)"/>
       </defs>
       <use xlink:href="#DejaVuSans-30"/>
       <use xlink:href="#DejaVuSans-2e" x="63.623047"/>
       <use xlink:href="#DejaVuSans-33" x="95.410156"/>
      </g>
     </g>
    </g>
    <g id="xtick_3">
     <g id="line2d_3">
      <g>
       <use xlink:href="#m89d8e02bc3" x="178.717541" y="307.584" style="stroke: #000000; stroke-width: 0.8"/>
      </g>
     </g>
     <g id="text_3">
      <!-- 0.4 -->
      <g transform="translate(170.765979 322.182437) scale(0.1 -0.1)">
       <defs>
        <path id="DejaVuSans-34" d="M 2419 4116 
L 825 1625 
L 2419 1625 
L 2419 4116 
z
M 2253 4666 
L 3047 4666 
L 3047 1625 
L 3713 1625 
L 3713 1100 
L 3047 1100 
L 3047 0 
L 2419 0 
L 2419 1100 
L 313 1100 
L 313 1709 
L 2253 4666 
z
" transform="scale(0.015625)"/>
       </defs>
       <use xlink:href="#DejaVuSans-30"/>
       <use xlink:href="#DejaVuSans-2e" x="63.623047"/>
       <use xlink:href="#DejaVuSans-34" x="95.410156"/>
      </g>
     </g>
    </g>
    <g id="xtick_4">
     <g id="line2d_4">
      <g>
       <use xlink:href="#m89d8e02bc3" x="233.252993" y="307.584" style="stroke: #000000; stroke-width: 0.8"/>
      </g>
     </g>
     <g id="text_4">
      <!-- 0.5 -->
      <g transform="translate(225.30143 322.182437) scale(0.1 -0.1)">
       <defs>
        <path id="DejaVuSans-35" d="M 691 4666 
L 3169 4666 
L 3169 4134 
L 1269 4134 
L 1269 2991 
Q 1406 3038 1543 3061 
Q 1681 3084 1819 3084 
Q 2600 3084 3056 2656 
Q 3513 2228 3513 1497 
Q 3513 744 3044 326 
Q 2575 -91 1722 -91 
Q 1428 -91 1123 -41 
Q 819 9 494 109 
L 494 744 
Q 775 591 1075 516 
Q 1375 441 1709 441 
Q 2250 441 2565 725 
Q 2881 1009 2881 1497 
Q 2881 1984 2565 2268 
Q 2250 2553 1709 2553 
Q 1456 2553 1204 2497 
Q 953 2441 691 2322 
L 691 4666 
z
" transform="scale(0.015625)"/>
       </defs>
       <use xlink:href="#DejaVuSans-30"/>
       <use xlink:href="#DejaVuSans-2e" x="63.623047"/>
       <use xlink:href="#DejaVuSans-35" x="95.410156"/>
      </g>
     </g>
    </g>
    <g id="xtick_5">
     <g id="line2d_5">
      <g>
       <use xlink:href="#m89d8e02bc3" x="287.788445" y="307.584" style="stroke: #000000; stroke-width: 0.8"/>
      </g>
     </g>
     <g id="text_5">
      <!-- 0.6 -->
      <g transform="translate(279.836882 322.182437) scale(0.1 -0.1)">
       <defs>
        <path id="DejaVuSans-36" d="M 2113 2584 
Q 1688 2584 1439 2293 
Q 1191 2003 1191 1497 
Q 1191 994 1439 701 
Q 1688 409 2113 409 
Q 2538 409 2786 701 
Q 3034 994 3034 1497 
Q 3034 2003 2786 2293 
Q 2538 2584 2113 2584 
z
M 3366 4563 
L 3366 3988 
Q 3128 4100 2886 4159 
Q 2644 4219 2406 4219 
Q 1781 4219 1451 3797 
Q 1122 3375 1075 2522 
Q 1259 2794 1537 2939 
Q 1816 3084 2150 3084 
Q 2853 3084 3261 2657 
Q 3669 2231 3669 1497 
Q 3669 778 3244 343 
Q 2819 -91 2113 -91 
Q 1303 -91 875 529 
Q 447 1150 447 2328 
Q 447 3434 972 4092 
Q 1497 4750 2381 4750 
Q 2619 4750 2861 4703 
Q 3103 4656 3366 4563 
z
" transform="scale(0.015625)"/>
       </defs>
       <use xlink:href="#DejaVuSans-30"/>
       <use xlink:href="#DejaVuSans-2e" x="63.623047"/>
       <use xlink:href="#DejaVuSans-36" x="95.410156"/>
      </g>
     </g>
    </g>
    <g id="xtick_6">
     <g id="line2d_6">
      <g>
       <use xlink:href="#m89d8e02bc3" x="342.323897" y="307.584" style="stroke: #000000; stroke-width: 0.8"/>
      </g>
     </g>
     <g id="text_6">
      <!-- 0.7 -->
      <g transform="translate(334.372334 322.182437) scale(0.1 -0.1)">
       <defs>
        <path id="DejaVuSans-37" d="M 525 4666 
L 3525 4666 
L 3525 4397 
L 1831 0 
L 1172 0 
L 2766 4134 
L 525 4134 
L 525 4666 
z
" transform="scale(0.015625)"/>
       </defs>
       <use xlink:href="#DejaVuSans-30"/>
       <use xlink:href="#DejaVuSans-2e" x="63.623047"/>
       <use xlink:href="#DejaVuSans-37" x="95.410156"/>
      </g>
     </g>
    </g>
    <g id="xtick_7">
     <g id="line2d_7">
      <g>
       <use xlink:href="#m89d8e02bc3" x="396.859349" y="307.584" style="stroke: #000000; stroke-width: 0.8"/>
      </g>
     </g>
     <g id="text_7">
      <!-- 0.8 -->
      <g transform="translate(388.907786 322.182437) scale(0.1 -0.1)">
       <defs>
        <path id="DejaVuSans-38" d="M 2034 2216 
Q 1584 2216 1326 1975 
Q 1069 1734 1069 1313 
Q 1069 891 1326 650 
Q 1584 409 2034 409 
Q 2484 409 2743 651 
Q 3003 894 3003 1313 
Q 3003 1734 2745 1975 
Q 2488 2216 2034 2216 
z
M 1403 2484 
Q 997 2584 770 2862 
Q 544 3141 544 3541 
Q 544 4100 942 4425 
Q 1341 4750 2034 4750 
Q 2731 4750 3128 4425 
Q 3525 4100 3525 3541 
Q 3525 3141 3298 2862 
Q 3072 2584 2669 2484 
Q 3125 2378 3379 2068 
Q 3634 1759 3634 1313 
Q 3634 634 3220 271 
Q 2806 -91 2034 -91 
Q 1263 -91 848 271 
Q 434 634 434 1313 
Q 434 1759 690 2068 
Q 947 2378 1403 2484 
z
M 1172 3481 
Q 1172 3119 1398 2916 
Q 1625 2713 2034 2713 
Q 2441 2713 2670 2916 
Q 2900 3119 2900 3481 
Q 2900 3844 2670 4047 
Q 2441 4250 2034 4250 
Q 1625 4250 1398 4047 
Q 1172 3844 1172 3481 
z
" transform="scale(0.015625)"/>
       </defs>
       <use xlink:href="#DejaVuSans-30"/>
       <use xlink:href="#DejaVuSans-2e" x="63.623047"/>
       <use xlink:href="#DejaVuSans-38" x="95.410156"/>
      </g>
     </g>
    </g>
    <g id="text_8">
     <!-- PTS -->
     <g transform="translate(226.917031 335.860562) scale(0.1 -0.1)">
      <defs>
       <path id="DejaVuSans-50" d="M 1259 4147 
L 1259 2394 
L 2053 2394 
Q 2494 2394 2734 2622 
Q 2975 2850 2975 3272 
Q 2975 3691 2734 3919 
Q 2494 4147 2053 4147 
L 1259 4147 
z
M 628 4666 
L 2053 4666 
Q 2838 4666 3239 4311 
Q 3641 3956 3641 3272 
Q 3641 2581 3239 2228 
Q 2838 1875 2053 1875 
L 1259 1875 
L 1259 0 
L 628 0 
L 628 4666 
z
" transform="scale(0.015625)"/>
       <path id="DejaVuSans-54" d="M -19 4666 
L 3928 4666 
L 3928 4134 
L 2272 4134 
L 2272 0 
L 1638 0 
L 1638 4134 
L -19 4134 
L -19 4666 
z
" transform="scale(0.015625)"/>
       <path id="DejaVuSans-53" d="M 3425 4513 
L 3425 3897 
Q 3066 4069 2747 4153 
Q 2428 4238 2131 4238 
Q 1616 4238 1336 4038 
Q 1056 3838 1056 3469 
Q 1056 3159 1242 3001 
Q 1428 2844 1947 2747 
L 2328 2669 
Q 3034 2534 3370 2195 
Q 3706 1856 3706 1288 
Q 3706 609 3251 259 
Q 2797 -91 1919 -91 
Q 1588 -91 1214 -16 
Q 841 59 441 206 
L 441 856 
Q 825 641 1194 531 
Q 1563 422 1919 422 
Q 2459 422 2753 634 
Q 3047 847 3047 1241 
Q 3047 1584 2836 1778 
Q 2625 1972 2144 2069 
L 1759 2144 
Q 1053 2284 737 2584 
Q 422 2884 422 3419 
Q 422 4038 858 4394 
Q 1294 4750 2059 4750 
Q 2388 4750 2728 4690 
Q 3069 4631 3425 4513 
z
" transform="scale(0.015625)"/>
      </defs>
      <use xlink:href="#DejaVuSans-50"/>
      <use xlink:href="#DejaVuSans-54" x="60.302734"/>
      <use xlink:href="#DejaVuSans-53" x="121.386719"/>
     </g>
    </g>
   </g>
   <g id="matplotlib.axis_2">
    <g id="ytick_1">
     <g id="line2d_8">
      <defs>
       <path id="m519f730b17" d="M 0 0 
L -3.5 0 
" style="stroke: #000000; stroke-width: 0.8"/>
      </defs>
      <g>
       <use xlink:href="#m519f730b17" x="57.6" y="292.771019" style="stroke: #000000; stroke-width: 0.8"/>
      </g>
     </g>
     <g id="text_9">
      <!-- 0.2 -->
      <g transform="translate(34.696875 296.570238) scale(0.1 -0.1)">
       <use xlink:href="#DejaVuSans-30"/>
       <use xlink:href="#DejaVuSans-2e" x="63.623047"/>
       <use xlink:href="#DejaVuSans-32" x="95.410156"/>
      </g>
     </g>
    </g>
    <g id="ytick_2">
     <g id="line2d_9">
      <g>
       <use xlink:href="#m519f730b17" x="57.6" y="237.779321" style="stroke: #000000; stroke-width: 0.8"/>
      </g>
     </g>
     <g id="text_10">
      <!-- 0.4 -->
      <g transform="translate(34.696875 241.57854) scale(0.1 -0.1)">
       <use xlink:href="#DejaVuSans-30"/>
       <use xlink:href="#DejaVuSans-2e" x="63.623047"/>
       <use xlink:href="#DejaVuSans-34" x="95.410156"/>
      </g>
     </g>
    </g>
    <g id="ytick_3">
     <g id="line2d_10">
      <g>
       <use xlink:href="#m519f730b17" x="57.6" y="182.787623" style="stroke: #000000; stroke-width: 0.8"/>
      </g>
     </g>
     <g id="text_11">
      <!-- 0.6 -->
      <g transform="translate(34.696875 186.586841) scale(0.1 -0.1)">
       <use xlink:href="#DejaVuSans-30"/>
       <use xlink:href="#DejaVuSans-2e" x="63.623047"/>
       <use xlink:href="#DejaVuSans-36" x="95.410156"/>
      </g>
     </g>
    </g>
    <g id="ytick_4">
     <g id="line2d_11">
      <g>
       <use xlink:href="#m519f730b17" x="57.6" y="127.795925" style="stroke: #000000; stroke-width: 0.8"/>
      </g>
     </g>
     <g id="text_12">
      <!-- 0.8 -->
      <g transform="translate(34.696875 131.595143) scale(0.1 -0.1)">
       <use xlink:href="#DejaVuSans-30"/>
       <use xlink:href="#DejaVuSans-2e" x="63.623047"/>
       <use xlink:href="#DejaVuSans-38" x="95.410156"/>
      </g>
     </g>
    </g>
    <g id="ytick_5">
     <g id="line2d_12">
      <g>
       <use xlink:href="#m519f730b17" x="57.6" y="72.804226" style="stroke: #000000; stroke-width: 0.8"/>
      </g>
     </g>
     <g id="text_13">
      <!-- 1.0 -->
      <g transform="translate(34.696875 76.603445) scale(0.1 -0.1)">
       <defs>
        <path id="DejaVuSans-31" d="M 794 531 
L 1825 531 
L 1825 4091 
L 703 3866 
L 703 4441 
L 1819 4666 
L 2450 4666 
L 2450 531 
L 3481 531 
L 3481 0 
L 794 0 
L 794 531 
z
" transform="scale(0.015625)"/>
       </defs>
       <use xlink:href="#DejaVuSans-31"/>
       <use xlink:href="#DejaVuSans-2e" x="63.623047"/>
       <use xlink:href="#DejaVuSans-30" x="95.410156"/>
      </g>
     </g>
    </g>
    <g id="text_14">
     <!-- EFF -->
     <g transform="translate(28.617188 183.438937) rotate(-90) scale(0.1 -0.1)">
      <defs>
       <path id="DejaVuSans-45" d="M 628 4666 
L 3578 4666 
L 3578 4134 
L 1259 4134 
L 1259 2753 
L 3481 2753 
L 3481 2222 
L 1259 2222 
L 1259 531 
L 3634 531 
L 3634 0 
L 628 0 
L 628 4666 
z
" transform="scale(0.015625)"/>
       <path id="DejaVuSans-46" d="M 628 4666 
L 3309 4666 
L 3309 4134 
L 1259 4134 
L 1259 2759 
L 3109 2759 
L 3109 2228 
L 1259 2228 
L 1259 0 
L 628 0 
L 628 4666 
z
" transform="scale(0.015625)"/>
      </defs>
      <use xlink:href="#DejaVuSans-45"/>
      <use xlink:href="#DejaVuSans-46" x="63.183594"/>
      <use xlink:href="#DejaVuSans-46" x="120.703125"/>
     </g>
    </g>
   </g>
   <g id="patch_3">
    <path d="M 57.6 307.584 
L 57.6 41.472 
" style="fill: none; stroke: #000000; stroke-width: 0.8; stroke-linejoin: miter; stroke-linecap: square"/>
   </g>
   <g id="patch_4">
    <path d="M 414.72 307.584 
L 414.72 41.472 
" style="fill: none; stroke: #000000; stroke-width: 0.8; stroke-linejoin: miter; stroke-linecap: square"/>
   </g>
   <g id="patch_5">
    <path d="M 57.6 307.584 
L 414.72 307.584 
" style="fill: none; stroke: #000000; stroke-width: 0.8; stroke-linejoin: miter; stroke-linecap: square"/>
   </g>
   <g id="patch_6">
    <path d="M 57.6 41.472 
L 414.72 41.472 
" style="fill: none; stroke: #000000; stroke-width: 0.8; stroke-linejoin: miter; stroke-linecap: square"/>
   </g>
  </g>
 </g>
 <defs>
  <clipPath id="p1b32f00a69">
   <rect x="57.6" y="41.472" width="357.12" height="266.112"/>
  </clipPath>
 </defs>
</svg>
